# xmcd
#
# Track frame offsets:
#	150
#	14266
#	27157
#	40252
#	49024
#	60681
#	74904
#	96480
#	110049
#	120799
#	139646
#	154822
#	168479
#	183929
#	214622
#	234324
#	248072
#	269328
#
# Disc length: 3840 seconds
#
# Revision: 2
# Processed by: cddbd v1.5.2PL0 Copyright (c) Steve Scherf et al.
# Submitted via: audiograbber 1.83.01
#
DISCID=fa0efe12
DTITLE=Various Artist - Beginner's Guide To New Orleans CD3 (Funk and New Brass)
DYEAR=2010
DGENRE=Jazz - Blues
TTITLE0=Allen Toussaint - Everything I Do Gonna Be Funky
TTITLE1=Lee Dorsey - Sneakin' Sally Through The Alley
TTITLE2=The Meters - Handclappin' Song
TTITLE3=David Batiste and The Gladiators - Funky Soul Part 1
TTITLE4=Robert Parker - Barefootin'
TTITLE5=Betty Harris - Ride Your Pony
TTITLE6=The Meters - Good Old Funky Music
TTITLE7=Lee Dorsey - Give It Up
TTITLE8=Dr. John - The Ear Is On Strike
TTITLE9=Aaron Neville - Hercules
TTITLE10=Tommy Ridgley - What A Mess We're In
TTITLE11=Alvin Robinson - Down Home Girl
TTITLE12=Hot Pepper - Southern Lady
TTITLE13=The New Birth Brass Band - Mardi Grass In New Orleans
TTITLE14=Youngblood Brass Band - Bone Refinery
TTITLE15=Hypnotic Brass Ensemble - Alyo
TTITLE16=The Hot 8 Brass Band - E Flat Blues
TTITLE17=Quintron - Waterfall
EXTD=
EXTT0=
EXTT1=
EXTT2=
EXTT3=
EXTT4=
EXTT5=
EXTT6=
EXTT7=
EXTT8=
EXTT9=
EXTT10=
EXTT11=
EXTT12=
EXTT13=
EXTT14=
EXTT15=
EXTT16=
EXTT17=
PLAYORDER=
